<?xml version="1.0" encoding="UTF-8"?>
<svg id="uuid-dfb99bec-3f4b-4de9-9b38-c74b16004648" data-name="1" xmlns="http://www.w3.org/2000/svg" viewBox="0 0 2000 2000">
  <defs>
    <style>
      .uuid-075feeb5-2d60-49e4-85be-5940aa402a43 {
        fill: #f2fcff;
      }

      .uuid-075feeb5-2d60-49e4-85be-5940aa402a43, .uuid-61e6b710-de58-4aea-8dfd-9a346ec7cf31, .uuid-94ecf134-38f3-4a4e-8fda-3fc550ac04a9, .uuid-677ae497-2917-4acd-ace5-6ce53cd1c143, .uuid-0dac0cce-e3d0-420c-833c-8afad1ffedf3, .uuid-45747acd-25c7-4ad4-a2e3-e3c67d708228, .uuid-62d77ddb-6efb-44cb-b033-82dd7a2df6c9, .uuid-568a2847-1c1a-40b8-b6a9-f2a4725c258a, .uuid-52f88aee-af5a-4df4-846b-8a5c0f0b12eb, .uuid-71e202bf-79e4-429e-9c6a-1bc7fe7d5f0f {
        stroke-width: 0px;
      }

      .uuid-61e6b710-de58-4aea-8dfd-9a346ec7cf31 {
        fill: #edc587;
      }

      .uuid-94ecf134-38f3-4a4e-8fda-3fc550ac04a9 {
        fill: #d9766d;
      }

      .uuid-677ae497-2917-4acd-ace5-6ce53cd1c143 {
        fill: #afdbe6;
      }

      .uuid-0dac0cce-e3d0-420c-833c-8afad1ffedf3 {
        fill: #a0cf55;
      }

      .uuid-45747acd-25c7-4ad4-a2e3-e3c67d708228 {
        fill: #ffca00;
      }

      .uuid-62d77ddb-6efb-44cb-b033-82dd7a2df6c9 {
        fill: #fff;
      }

      .uuid-568a2847-1c1a-40b8-b6a9-f2a4725c258a {
        fill: #e3e7f7;
      }

      .uuid-52f88aee-af5a-4df4-846b-8a5c0f0b12eb {
        fill: #ccd4d6;
      }

      .uuid-71e202bf-79e4-429e-9c6a-1bc7fe7d5f0f {
        fill: #3b515c;
      }
    </style>
  </defs>
  <rect class="uuid-62d77ddb-6efb-44cb-b033-82dd7a2df6c9" width="2000" height="2000"/>
  <g>
    <path class="uuid-71e202bf-79e4-429e-9c6a-1bc7fe7d5f0f" d="m1214.4,1361.79h-568.8c-25.2,0-45.6-20.4-45.6-45.6v-445.12c0-25.2,20.4-45.6,45.6-45.6h568.8c25.2,0,45.6,20.4,45.6,45.6v445.12c0,25.2-20.4,45.6-45.6,45.6Z"/>
    <rect class="uuid-075feeb5-2d60-49e4-85be-5940aa402a43" x="632.56" y="945.07" width="592.32" height="380.4"/>
    <circle class="uuid-94ecf134-38f3-4a4e-8fda-3fc550ac04a9" cx="672" cy="885.47" r="22.32"/>
    <circle class="uuid-0dac0cce-e3d0-420c-833c-8afad1ffedf3" cx="747.84" cy="885.47" r="22.32"/>
    <circle class="uuid-45747acd-25c7-4ad4-a2e3-e3c67d708228" cx="823.68" cy="885.47" r="22.32"/>
    <rect class="uuid-677ae497-2917-4acd-ace5-6ce53cd1c143" x="672" y="983.71" width="226.24" height="145.44"/>
    <rect class="uuid-52f88aee-af5a-4df4-846b-8a5c0f0b12eb" x="725.52" y="1174.43" width="425.28" height="40"/>
    <rect class="uuid-52f88aee-af5a-4df4-846b-8a5c0f0b12eb" x="725.52" y="1251.55" width="425.28" height="40"/>
    <g>
      <path class="uuid-61e6b710-de58-4aea-8dfd-9a346ec7cf31" d="m1124.4,1158.19c37.04-49.44,86.08-125.04,136.16-211.92,92.4-160.08,153.52-297.76,136.64-307.52-16.88-9.76-105.44,112.08-197.84,272.16-50.16,86.88-91.04,167.12-115.36,223.92l40.4,23.36Z"/>
      <path class="uuid-568a2847-1c1a-40b8-b6a9-f2a4725c258a" d="m1148.24,1003.15c-26.8,50.48-48.88,95.84-64.24,131.76l40.32,23.28c23.44-31.28,51.68-73.04,81.92-121.52l-58-33.52Z"/>
      <path class="uuid-94ecf134-38f3-4a4e-8fda-3fc550ac04a9" d="m1084.08,1134.91s-38.88-3.68-50.56,35.12c-11.68,38.8.72,83.76-24.56,115.04,0,0,70.64-30.08,102.24-64.4,31.6-34.32,13.2-62.48,13.2-62.48"/>
    </g>
  </g>
</svg>